
<svg width="450px" height="162px" viewBox="0 0 450 162" version="1.1" xmlns="http://www.w3.org/2000/svg" xmlns:xlink="http://www.w3.org/1999/xlink">
    <g id="Page-1" stroke="none" stroke-width="1" fill="none" fill-rule="evenodd">
        <g id="Artboard" transform="translate(-11.000000, -173.000000)" stroke="#424242">
            <g id="Path-4" transform="translate(186.000000, 183.618407)" fill="#D8D8D8">
                <path d="" id="Path"></path>
            </g>
            <path d="M257.371721,218.388298 C253.957318,235.45947 274.666015,304.254709 294.811646,316.191585 C314.957278,328.128462 376.837942,339.219869 407.346348,316.191585 C436.561812,287.672518 447,219.363539 447,201.317127 C447,183.270715 399.920013,171.677792 330.353068,183.270715 C260.786124,194.863638 260.786124,201.317127 257.371721,218.388298 Z" id="Path-3" stroke-width="10" fill="#F2F3F4"/>
            <path d="M459.009396,175.197386 C460.330201,185.775316 460.330201,192.947824 459.009396,196.714908 C453.363299,200.655564 450.540251,204.290064 450.540251,207.618407 C448.795532,191.719077 433.252572,180.91207 403.911372,175.197386 C367.862382,174.425414 386.22839,174.425414 459.009396,175.197386 Z" id="Polygon" fill="#424242"></path>
            <g id="Group" transform="translate(114.000000, 251.618407) scale(-1, 1) translate(-114.000000, -251.618407) translate(12.000000, 173.618407)">
                <path d="M0.371720889,44.8881081 C-3.04268191,61.8462255 17.6660148,130.185867 37.8116463,142.043691 C57.9572779,153.901516 119.837942,164.91947 150.346348,142.043691 C179.561812,113.713492 190,45.8568902 190,27.9299908 C190,10.0030913 142.920013,-1.51305732 73.3530681,10.0030913 C3.78612369,21.51924 3.78612369,27.9299908 0.371720889,44.8881081 Z" id="Path-3-Copy" stroke-width="10" fill="#F2F3F4"/>
                <path d="M203.015087,0.976338725 C204.328304,11.5491253 204.328304,18.7181448 203.015087,22.4833973 C197.401429,26.4221371 194.5946,30.0548691 194.5946,33.3815933 C192.859905,17.4899958 177.406244,6.68824431 148.233617,0.976338725 C110.257652,0.18334484 128.518142,0.18334484 203.015087,0.976338725 Z" id="Polygon-Copy" fill="#424242"></path>
            </g>
            <path d="M219.604614,238.078969 C223.377104,220.29809 229.687918,214.251944 237,214.251944 C244.312082,214.251944 249.106037,220.423819 254.304148,239.449726 C259.502258,258.475633 257.04106,206.905453 269,194.618407 C264.68836,196.344663 246.912357,202.036002 237.08305,202.036002 C222.017542,202.036002 213.087247,197.560443 205,194.618407 C211.402272,200.626895 217.771376,246.418021 219.604614,238.078969 Z" id="Path-2" fill="#424242"/>
        </g>
    </g>
</svg>